<?xml version="1.0" standalone="no"?>
<!DOCTYPE svg PUBLIC "-//W3C//DTD SVG 20010904//EN"
 "http://www.w3.org/TR/2001/REC-SVG-20010904/DTD/svg10.dtd">
<svg version="1.0" xmlns="http://www.w3.org/2000/svg"
 width="64.000000pt" height="64.000000pt" viewBox="0 0 64.000000 64.000000"
 preserveAspectRatio="xMidYMid meet">

<g transform="translate(0.000000,64.000000) scale(0.100000,-0.100000)"
fill="#000000" stroke="none">
<path d="M180 550 c-27 -27 -27 -93 0 -120 43 -43 100 -9 100 60 0 45 -27 80
-60 80 -11 0 -29 -9 -40 -20z"/>
<path d="M380 550 c-43 -43 -15 -140 40 -140 33 0 60 35 60 80 0 45 -27 80
-60 80 -11 0 -29 -9 -40 -20z"/>
<path d="M50 380 c-27 -27 -27 -93 0 -120 43 -43 100 -9 100 60 0 45 -27 80
-60 80 -11 0 -29 -9 -40 -20z"/>
<path d="M510 380 c-13 -13 -20 -33 -20 -60 0 -69 57 -103 100 -60 43 43 15
140 -40 140 -11 0 -29 -9 -40 -20z"/>
<path d="M290 339 c-32 -12 -110 -126 -110 -161 0 -15 11 -40 24 -55 23 -27
28 -28 116 -28 89 0 92 1 117 29 31 37 27 77 -15 138 -51 74 -85 94 -132 77z"/>
</g>
</svg>
